HIERARCHY
ROOT Hips
{
  OFFSET -368.709 92.1137 1801.98
  CHANNELS 6 Xposition Yposition Zposition Zrotation Xrotation Yrotation
  JOINT Spine
  {
    OFFSET 0 8.00001 7.80565e-05
    CHANNELS 6 Xposition Yposition Zposition Zrotation Xrotation Yrotation
    JOINT Spine1
    {
      OFFSET 0.000225079 8.00001 0.000500838
      CHANNELS 6 Xposition Yposition Zposition Zrotation Xrotation Yrotation
      JOINT Spine2
      {
        OFFSET -0.000360015 7.99999 -0.000850776
        CHANNELS 6 Xposition Yposition Zposition Zrotation Xrotation Yrotation
        JOINT Spine3
        {
          OFFSET 0 8 0
          CHANNELS 6 Xposition Yposition Zposition Zrotation Xrotation Yrotation
          JOINT Neck
          {
            OFFSET 2.52324e-05 17 -1.82025e-05
            CHANNELS 6 Xposition Yposition Zposition Zrotation Xrotation Yrotation
            JOINT Head
            {
              OFFSET 0.00014847 10.8 0.000379359
              CHANNELS 6 Xposition Yposition Zposition Zrotation Xrotation Yrotation
              End Site
              {
                OFFSET 0 20.25 0
              }
            }
          }
          JOINT LeftShoulder
          {
            OFFSET 5.00009 17 -7.09458e-05
            CHANNELS 6 Xposition Yposition Zposition Zrotation Xrotation Yrotation
            JOINT LeftShoulder2
            {
              OFFSET 6.45 0 0
              CHANNELS 6 Xposition Yposition Zposition Zrotation Xrotation Yrotation
              JOINT LeftArm
              {
                OFFSET 6.45001 0 0
                CHANNELS 6 Xposition Yposition Zposition Zrotation Xrotation Yrotation
                JOINT LeftForeArm
                {
                  OFFSET -0.00307712 -32.39 -1.9958
                  CHANNELS 6 Xposition Yposition Zposition Zrotation Xrotation Yrotation
                  JOINT LeftHand
                  {
                    OFFSET 0.00130178 -25.6518 2.00031
                    CHANNELS 6 Xposition Yposition Zposition Zrotation Xrotation Yrotation
                    JOINT LeftHandThumb1
                    {
                      OFFSET -0.499797 -1.50018 2.64941
                      CHANNELS 6 Xposition Yposition Zposition Zrotation Xrotation Yrotation
                      JOINT LeftHandThumb2
                      {
                        OFFSET 6.18081e-05 -3.79972 3.69993
                        CHANNELS 6 Xposition Yposition Zposition Zrotation Xrotation Yrotation
                        JOINT LeftHandThumb3
                        {
                          OFFSET 0.000148481 -2.99994 2.7001
                          CHANNELS 6 Xposition Yposition Zposition Zrotation Xrotation Yrotation
                          End Site
                          {
                            OFFSET 0.000216327 -2.29994 1.80003
                          }
                        }
                      }
                    }
                    JOINT LeftHandIndex
                    {
                      OFFSET -0.00109098 -1.90183 1.60139
                      CHANNELS 6 Xposition Yposition Zposition Zrotation Xrotation Yrotation
                      JOINT LeftHandIndex1
                      {
                        OFFSET -0.000443239 -8.30051 1.90098
                        CHANNELS 6 Xposition Yposition Zposition Zrotation Xrotation Yrotation
                        JOINT LeftHandIndex2
                        {
                          OFFSET -0.00297643 -4.50091 0.00580837
                          CHANNELS 6 Xposition Yposition Zposition Zrotation Xrotation Yrotation
                          JOINT LeftHandIndex3
                          {
                            OFFSET -0.000832579 -3.39525 -0.00817544
                            CHANNELS 6 Xposition Yposition Zposition Zrotation Xrotation Yrotation
                            End Site
                            {
                              OFFSET -0.000311944 -2.59994 -0.000197469
                            }
                          }
                        }
                      }
                    }
                    JOINT LeftHandMiddle
                    {
                      OFFSET -0.251426 -2.20173 0.40228
                      CHANNELS 6 Xposition Yposition Zposition Zrotation Xrotation Yrotation
                      JOINT LeftHandMiddle1
                      {
                        OFFSET 0.00112726 -8.29814 0.998477
                        CHANNELS 6 Xposition Yposition Zposition Zrotation Xrotation Yrotation
                        JOINT LeftHandMiddle2
                        {
                          OFFSET 0.000766863 -4.65072 -0.000278727
                          CHANNELS 6 Xposition Yposition Zposition Zrotation Xrotation Yrotation
                          JOINT LeftHandMiddle3
                          {
                            OFFSET -0.000724649 -3.29825 -0.0041926
                            CHANNELS 6 Xposition Yposition Zposition Zrotation Xrotation Yrotation
                            End Site
                            {
                              OFFSET -0.00298251 -2.69845 -0.0019082
                            }
                          }
                        }
                      }
                    }
                    JOINT LeftHandRing
                    {
                      OFFSET -0.501173 -2.15055 -0.797938
                      CHANNELS 6 Xposition Yposition Zposition Zrotation Xrotation Yrotation
                      JOINT LeftHandRing1
                      {
                        OFFSET 0.000244635 -7.74943 -0.199482
                        CHANNELS 6 Xposition Yposition Zposition Zrotation Xrotation Yrotation
                        JOINT LeftHandRing2
                        {
                          OFFSET -0.00034208 -3.79886 0.000747058
                          CHANNELS 6 Xposition Yposition Zposition Zrotation Xrotation Yrotation
                          JOINT LeftHandRing3
                          {
                            OFFSET -0.00116552 -3.40038 0.000399701
                            CHANNELS 6 Xposition Yposition Zposition Zrotation Xrotation Yrotation
                            End Site
                            {
                              OFFSET -5.44267e-05 -2.60011 8.6824e-05
                            }
                          }
                        }
                      }
                    }
                    JOINT LeftHandPinky
                    {
                      OFFSET -0.745337 -1.7437 -1.85703
                      CHANNELS 6 Xposition Yposition Zposition Zrotation Xrotation Yrotation
                      JOINT LeftHandPinky1
                      {
                        OFFSET 0.00507135 -7.14401 -1.00825
                        CHANNELS 6 Xposition Yposition Zposition Zrotation Xrotation Yrotation
                        JOINT LeftHandPinky2
                        {
                          OFFSET 0.00232392 -2.99826 -0.00510416
                          CHANNELS 6 Xposition Yposition Zposition Zrotation Xrotation Yrotation
                          JOINT LeftHandPinky3
                          {
                            OFFSET 0.000473477 -2.3495 -0.000910957
                            CHANNELS 6 Xposition Yposition Zposition Zrotation Xrotation Yrotation
                            End Site
                            {
                              OFFSET -0.00396655 -2.09754 0.00268978
                            }
                          }
                        }
                      }
                    }
                  }
                }
              }
            }
          }
          JOINT RightShoulder
          {
            OFFSET -4.99995 17 -4.80569e-05
            CHANNELS 6 Xposition Yposition Zposition Zrotation Xrotation Yrotation
            JOINT RightShoulder2
            {
              OFFSET -6.45 0 0
              CHANNELS 6 Xposition Yposition Zposition Zrotation Xrotation Yrotation
              JOINT RightArm
              {
                OFFSET -6.45002 1.86343e-05 2.09419e-05
                CHANNELS 6 Xposition Yposition Zposition Zrotation Xrotation Yrotation
                JOINT RightForeArm
                {
                  OFFSET 0.000635093 -32.4021 -2.00109
                  CHANNELS 6 Xposition Yposition Zposition Zrotation Xrotation Yrotation
                  JOINT RightHand
                  {
                    OFFSET -0.000455539 -25.65 1.99991
                    CHANNELS 6 Xposition Yposition Zposition Zrotation Xrotation Yrotation
                    JOINT RightHandThumb1
                    {
                      OFFSET 0.499496 -1.50192 2.65001
                      CHANNELS 6 Xposition Yposition Zposition Zrotation Xrotation Yrotation
                      JOINT RightHandThumb2
                      {
                        OFFSET -0.00686495 -3.80902 3.70546
                        CHANNELS 6 Xposition Yposition Zposition Zrotation Xrotation Yrotation
                        JOINT RightHandThumb3
                        {
                          OFFSET 0.00236817 -2.99429 2.70163
                          CHANNELS 6 Xposition Yposition Zposition Zrotation Xrotation Yrotation
                          End Site
                          {
                            OFFSET -0.00105545 -2.30545 1.80412
                          }
                        }
                      }
                    }
                    JOINT RightHandIndex
                    {
                      OFFSET 0.000435833 -1.89905 1.59937
                      CHANNELS 6 Xposition Yposition Zposition Zrotation Xrotation Yrotation
                      JOINT RightHandIndex1
                      {
                        OFFSET 0.00107446 -8.30054 1.89887
                        CHANNELS 6 Xposition Yposition Zposition Zrotation Xrotation Yrotation
                        JOINT RightHandIndex2
                        {
                          OFFSET -0.00212681 -4.50246 -0.00161128
                          CHANNELS 6 Xposition Yposition Zposition Zrotation Xrotation Yrotation
                          JOINT RightHandIndex3
                          {
                            OFFSET -0.000458874 -3.39906 -0.000960322
                            CHANNELS 6 Xposition Yposition Zposition Zrotation Xrotation Yrotation
                            End Site
                            {
                              OFFSET -0.00152357 -2.60071 6.82011e-05
                            }
                          }
                        }
                      }
                    }
                    JOINT RightHandMiddle
                    {
                      OFFSET 0.250617 -2.20066 0.399223
                      CHANNELS 6 Xposition Yposition Zposition Zrotation Xrotation Yrotation
                      JOINT RightHandMiddle1
                      {
                        OFFSET 0.00143031 -8.29968 0.999447
                        CHANNELS 6 Xposition Yposition Zposition Zrotation Xrotation Yrotation
                        JOINT RightHandMiddle2
                        {
                          OFFSET -0.000310794 -4.65001 -0.000579252
                          CHANNELS 6 Xposition Yposition Zposition Zrotation Xrotation Yrotation
                          JOINT RightHandMiddle3
                          {
                            OFFSET -8.49852e-05 -3.29986 -0.00129184
                            CHANNELS 6 Xposition Yposition Zposition Zrotation Xrotation Yrotation
                            End Site
                            {
                              OFFSET 0.000992969 -2.69993 -0.00129399
                            }
                          }
                        }
                      }
                    }
                    JOINT RightHandRing
                    {
                      OFFSET 0.50049 -2.15094 -0.800877
                      CHANNELS 6 Xposition Yposition Zposition Zrotation Xrotation Yrotation
                      JOINT RightHandRing1
                      {
                        OFFSET -0.00191049 -7.75012 -0.197663
                        CHANNELS 6 Xposition Yposition Zposition Zrotation Xrotation Yrotation
                        JOINT RightHandRing2
                        {
                          OFFSET 0.00103774 -3.80217 0.00147419
                          CHANNELS 6 Xposition Yposition Zposition Zrotation Xrotation Yrotation
                          JOINT RightHandRing3
                          {
                            OFFSET 0.000111187 -3.39883 0.00081162
                            CHANNELS 6 Xposition Yposition Zposition Zrotation Xrotation Yrotation
                            End Site
                            {
                              OFFSET -0.00179808 -2.59919 -0.00211504
                            }
                          }
                        }
                      }
                    }
                    JOINT RightHandPinky
                    {
                      OFFSET 0.750266 -1.74991 -1.84845
                      CHANNELS 6 Xposition Yposition Zposition Zrotation Xrotation Yrotation
                      JOINT RightHandPinky1
                      {
                        OFFSET 0.000868036 -7.15103 -1.00117
                        CHANNELS 6 Xposition Yposition Zposition Zrotation Xrotation Yrotation
                        JOINT RightHandPinky2
                        {
                          OFFSET 0.00205726 -2.99963 -0.000394405
                          CHANNELS 6 Xposition Yposition Zposition Zrotation Xrotation Yrotation
                          JOINT RightHandPinky3
                          {
                            OFFSET -0.000102758 -2.34466 -0.000614101
                            CHANNELS 6 Xposition Yposition Zposition Zrotation Xrotation Yrotation
                            End Site
                            {
                              OFFSET 0.00131873 -2.09857 -0.000103086
                            }
                          }
                        }
                      }
                    }
                  }
                }
              }
            }
          }
        }
      }
    }
  }
  JOINT LeftUpLeg
  {
    OFFSET 8.00002 0 0
    CHANNELS 6 Xposition Yposition Zposition Zrotation Xrotation Yrotation
    JOINT LeftLeg
    {
      OFFSET 0.000845684 -45.0006 -0.999164
      CHANNELS 6 Xposition Yposition Zposition Zrotation Xrotation Yrotation
      JOINT LeftFoot
      {
        OFFSET -0.00115125 -40.9997 -2.00153
        CHANNELS 6 Xposition Yposition Zposition Zrotation Xrotation Yrotation
        JOINT LeftToeBase
        {
          OFFSET -0.00018111 -7.49995 12.5
          CHANNELS 6 Xposition Yposition Zposition Zrotation Xrotation Yrotation
          JOINT LeftFootToe
          {
            OFFSET 0 0 4
            CHANNELS 6 Xposition Yposition Zposition Zrotation Xrotation Yrotation
            End Site
            {
              OFFSET 0 0 0
            }
          }
        }
      }
    }
  }
  JOINT RightUpLeg
  {
    OFFSET -8.00002 0 0
    CHANNELS 6 Xposition Yposition Zposition Zrotation Xrotation Yrotation
    JOINT RightLeg
    {
      OFFSET -0.00111921 -44.9963 -0.999746
      CHANNELS 6 Xposition Yposition Zposition Zrotation Xrotation Yrotation
      JOINT RightFoot
      {
        OFFSET 0.000263629 -41.0001 -2.00052
        CHANNELS 6 Xposition Yposition Zposition Zrotation Xrotation Yrotation
        JOINT RightToeBase
        {
          OFFSET -0.000149347 -7.50006 12.5002
          CHANNELS 6 Xposition Yposition Zposition Zrotation Xrotation Yrotation
          JOINT RightFootToe
          {
            OFFSET 0 0 4
            CHANNELS 6 Xposition Yposition Zposition Zrotation Xrotation Yrotation
            End Site
            {
              OFFSET 0 0 0
            }
          }
        }
      }
    }
  }
}
MOTION
Frames:	3
Frame Time:	0.0111111
-329.381 84.0878 1807.18 2.9312 2.73115 -119.868 0 8 -1.13687e-13 2.10051 17.4624 16.2919 -2.27374e-13 8 -1.13687e-13 0.489563 7.435 4.45628 0 8 1.13687e-13 0.31725 3.7183 2.23355 2.27374e-13 8 1.42109e-13 0.316507 3.70761 2.22717 0 17 -1.13687e-13 -1.98553 -3.481 9.1027 2.27374e-13 10.8 0 -3.77348 -8.62148 21.2593 5 17 2.84217e-14 -0.200497 -4.57185 12.5026 6.45 0 0 -2.46461 -2.07012 -3.79242 6.45 -5.68434e-14 0 -146.644 -84.7374 -162.738 0 -32.4 -2 -3.6761 1.15841 5.33466 0 -25.65 2 20.7233 18.3861 8.17791 -0.5 -1.5 2.65 -19.99 -17.4352 13.4898 0 -3.8 3.7 5.06084 10.7431 3.36399 2.27374e-13 -3 2.7 0.0461238 9.25079 0.0102371 4.54747e-13 -1.9 1.6 2.59663e-06 1.10512e-06 -1.10767e-06 2.27374e-13 -8.3 1.9 -6.51994 -18.7783 -1.03172 0 -4.5 2.84217e-14 -0.0700017 0.0164241 -0.026899 0 -3.4 -5.68434e-14 0.000527605 0.113425 -0.0296169 -0.25 -2.2 0.4 2.59663e-06 1.10512e-06 -1.10767e-06 2.27374e-13 -8.3 1 -4.87245 -12.8878 -0.514061 2.27374e-13 -4.65 1.13687e-13 -37.3906 0.0260979 0.00372394 -2.27374e-13 -3.3 2.27374e-13 4.8007 -0.0254597 -0.00296471 -0.5 -2.15 -0.8 2.59663e-06 1.10512e-06 -1.10767e-06 0 -7.75 -0.2 -1.93869 -1.352 0.0297453 0 -3.8 2.84217e-14 -0.285857 0.0740307 -0.0905943 0 -3.4 -2.27374e-13 -46.8555 -0.0178245 -0.0632066 -0.75 -1.75 -1.85 2.59663e-06 1.10512e-06 -1.10767e-06 -2.27374e-13 -7.15 -1 -0.518784 5.08331 0.0780964 -2.27374e-13 -3 0 -3.23106 0.0617622 0.0115259 -2.27374e-13 -2.35 5.68434e-14 -3.00462 0.0561909 0.00984636 -5 17 -2.84217e-14 -1.07062 -5.73122 4.15057 -6.45 -5.68434e-14 -1.7053e-13 -1.54532 0.813004 -2.69762 -6.45 5.68434e-14 -2.84217e-14 -7.42853 -70.0457 21.9142 -2.27374e-13 -32.4 -2 -24.2607 -40.2404 -32.2258 0 -25.65 2 -6.35303 31.9364 9.36778 0.5 -1.5 2.65 -111.176 59.7305 -95.4655 -2.27374e-13 -3.8 3.7 -27.4295 45.0542 4.72344 0 -3 2.7 -0.00404203 20.1967 -0.0134819 2.27374e-13 -1.9 1.6 -5.1136e-06 9.23792e-06 -8.55104e-06 0 -8.3 1.9 7.9862 -5.58286 0.384215 0 -4.5 0 -0.014325 0.0136715 0.157265 4.54747e-13 -3.4 0 -0.0099059 0.0685682 0.157466 0.25 -2.2 0.4 -5.1136e-06 9.23792e-06 -8.55104e-06 -2.27374e-13 -8.3 1 28.3275 -8.55615 1.15192 0 -4.65 0 42.6251 24.5213 2.10694 5.68434e-14 -3.3 -1.13687e-13 36.7331 -0.0591529 -0.141315 0.5 -2.15 -0.8 -5.1136e-06 9.23792e-06 -8.55104e-06 4.54747e-13 -7.75 -0.2 56.2634 -0.197134 -3.42381 4.54747e-13 -3.8 0 21.9164 24.3964 5.00626 5.68434e-14 -3.4 0 31.1539 -0.00711449 -0.0150052 0.75 -1.75 -1.85 -5.1136e-06 9.23792e-06 -8.55104e-06 0 -7.15 -1 75.5245 -2.17924 -6.36495 -5.68434e-14 -3 0 27.3064 20.0301 2.33161 0 -2.35 0 28.1514 0.0272229 0.0227752 8 -2.84217e-14 0 39.0823 -36.7159 29.345 0 -45 -1 -25.3168 18.8539 7.77679 0 -41 -2 7.97214 19.5833 -20.0905 -2.27374e-13 -7.5 12.5 -0.00016958 6.1586e-06 0.050514 -2.27374e-13 -7.10543e-15 4 11.8493 -12.5145 9.82836 -8 0 -1.13687e-13 25.3956 12.5124 -15.0143 0 -45 -1 -46.3409 9.17623 13.5013 0 -41 -2 30.5806 -29.0088 -2.90377 2.27374e-13 -7.5 12.5 0.0051114 -0.00131525 -0.00862378 -2.27374e-13 0 4 -26.9117 -2.72344 56.7452 
-329.355 84.0871 1807.17 2.94342 2.78048 -119.858 0 8 1.13687e-13 2.14289 17.4285 16.287 2.27374e-13 8 -1.13687e-13 0.477178 7.42895 4.45499 0 8 1.7053e-13 0.310837 3.7153 2.23254 0 8 8.52651e-14 0.310214 3.70459 2.22579 0 17 -8.52651e-14 -1.96061 -3.49445 9.09425 4.54747e-13 10.8 0 -3.7126 -8.64602 21.2419 5 17 5.68434e-14 -0.196068 -4.5749 12.4984 6.45 0 0 -2.46315 -2.06928 -3.77851 6.45 -1.13687e-13 -5.68434e-14 -146.925 -84.8724 -163.02 -2.27374e-13 -32.4 -2 -3.6849 1.14866 5.39149 0 -25.65 2 20.5263 18.3931 8.50122 -0.5 -1.5 2.65 -20.0561 -17.4147 13.3745 -2.27374e-13 -3.8 3.7 5.01219 10.6279 3.3446 2.27374e-13 -3 2.7 0.0462485 9.38603 0.0100167 4.54747e-13 -1.9 1.6 2.59663e-06 1.10512e-06 -1.10767e-06 2.27374e-13 -8.3 1.9 -6.33343 -18.5091 -0.990008 2.27374e-13 -4.5 -5.68434e-14 -0.0699851 0.0166015 -0.0271314 -2.27374e-13 -3.4 5.68434e-14 0.000537942 0.113222 -0.029741 -0.25 -2.2 0.4 2.59663e-06 1.10512e-06 -1.10767e-06 4.54747e-13 -8.3 1 -4.7601 -12.4986 -0.483982 -2.27374e-13 -4.65 1.7053e-13 -37.3905 0.0244478 0.00381947 0 -3.3 1.7053e-13 4.25579 -0.0248665 -0.00309217 -0.5 -2.15 -0.8 2.59663e-06 1.10512e-06 -1.10767e-06 0 -7.75 -0.2 -1.96168 -0.71288 0.0514147 0 -3.8 2.84217e-14 -0.285867 0.0738061 -0.0904218 0 -3.4 -2.27374e-13 -47.371 -0.0183551 -0.0635131 -0.75 -1.75 -1.85 2.59663e-06 1.10512e-06 -1.10767e-06 0 -7.15 -1 -0.620191 5.84328 0.1044 -2.27374e-13 -3 0 -3.11254 0.0627045 0.011183 -2.27374e-13 -2.35 -5.68434e-14 -2.89534 0.057267 0.00964905 -5 17 -5.68434e-14 -1.03366 -5.72953 4.11281 -6.45 -1.13687e-13 -1.7053e-13 -1.54025 0.812821 -2.71162 -6.45 2.84217e-14 -8.52651e-14 -7.49836 -70.196 22.0663 0 -32.4 -2 -24.6273 -40.3551 -31.4913 0 -25.65 2 -7.90738 31.4594 11.8098 0.5 -1.5 2.65 -111.642 62.226 -92.7234 -2.27374e-13 -3.8 3.7 -27.4296 45.0542 4.72342 0 -3 2.7 -0.00379833 20.1967 -0.0134649 0 -1.9 1.6 -5.1136e-06 9.23792e-06 -8.55104e-06 0 -8.3 1.9 9.54916 -5.73094 0.457329 0 -4.5 5.68434e-14 -0.0142758 0.0136715 0.157372 4.54747e-13 -3.4 0 -0.00990973 0.0699302 0.157542 0.25 -2.2 0.4 -5.1136e-06 9.23792e-06 -8.55104e-06 0 -8.3 1 28.275 -8.07362 1.04618 -2.27374e-13 -4.65 5.68434e-14 43.3705 25.4547 2.30314 5.68434e-14 -3.3 0 37.6244 -0.0608568 -0.141399 0.5 -2.15 -0.8 -5.1136e-06 9.23792e-06 -8.55104e-06 0 -7.75 -0.2 56.8884 -0.134383 -3.51168 2.27374e-13 -3.8 0 21.9213 24.4255 5.0295 1.7053e-13 -3.4 0 31.1832 -0.0041138 -0.0111143 0.75 -1.75 -1.85 -5.1136e-06 9.23792e-06 -8.55104e-06 0 -7.15 -1 75.8368 -2.15934 -6.43202 0 -3 -5.68434e-14 26.9833 19.6325 2.19316 0 -2.35 0 27.7697 0.00763526 0.00591227 8 -2.84217e-14 0 39.1319 -36.7046 29.3653 2.27374e-13 -45 -1 -25.3181 18.8465 7.77086 0 -41 -2 7.98301 19.5422 -20.0917 -2.27374e-13 -7.5 12.5 -0.00016958 6.1586e-06 0.0505202 0 -7.10543e-15 4 11.8008 -12.4828 9.74683 -8 -2.84217e-14 -2.27374e-13 25.4572 12.5216 -15.0196 0 -45 -1 -46.339 9.16769 13.4858 0 -41 -2 30.5667 -28.9857 -2.84094 0 -7.5 12.5 0.00520815 -0.00136159 -0.00862378 -2.27374e-13 0 4 -26.9025 -2.71953 56.7449 
-329.329 84.0863 1807.16 2.95465 2.82692 -119.845 0 8 2.27374e-13 2.18162 17.3948 16.2816 2.27374e-13 8 -1.13687e-13 0.464158 7.42251 4.45264 0 8 1.13687e-13 0.304154 3.71221 2.23156 2.27374e-13 8 1.42109e-13 0.303812 3.70154 2.22461 0 17 -2.84217e-14 -1.93202 -3.51496 9.08411 2.27374e-13 10.8 0 -3.64202 -8.68642 21.2208 5 17 5.68434e-14 -0.190488 -4.57979 12.4981 6.45 0 0 -2.4559 -2.06858 -3.7679 6.45 -5.68434e-14 0 -147.164 -85.0001 -163.254 -2.27374e-13 -32.4 -2 -3.67792 1.16799 5.42332 -2.27374e-13 -25.65 2 20.3222 18.3887 8.82143 -0.5 -1.5 2.65 -20.1227 -17.3974 13.2631 -2.27374e-13 -3.8 3.7 4.96348 10.5142 3.32514 0 -3 2.7 0.0463735 9.52315 0.00971965 2.27374e-13 -1.9 1.6 2.59663e-06 1.10512e-06 -1.10767e-06 2.27374e-13 -8.3 1.9 -6.17407 -18.2798 -0.954987 0 -4.5 0 -0.0699687 0.0167726 -0.0273518 2.27374e-13 -3.4 -5.68434e-14 0.000548358 0.112996 -0.0298525 -0.25 -2.2 0.4 2.59663e-06 1.10512e-06 -1.10767e-06 4.54747e-13 -8.3 1 -4.67123 -12.1214 -0.456337 0 -4.65 1.13687e-13 -37.3905 0.0228032 0.00389267 -2.27374e-13 -3.3 2.27374e-13 3.61234 -0.0199896 -0.00321924 -0.5 -2.15 -0.8 2.59663e-06 1.10512e-06 -1.10767e-06 -2.27374e-13 -7.75 -0.2 -2.00651 -0.0343667 0.0770288 0 -3.8 0 -0.285884 0.073552 -0.0902099 -2.27374e-13 -3.4 -2.27374e-13 -47.8987 -0.018907 -0.0637973 -0.75 -1.75 -1.85 2.59663e-06 1.10512e-06 -1.10767e-06 -2.27374e-13 -7.15 -1 -0.744984 6.68053 0.137935 0 -3 0 -2.97271 0.0636484 0.0108522 2.27374e-13 -2.35 0 -2.76611 0.0583423 0.00946643 -5 17 -2.84217e-14 -0.997893 -5.72743 4.09055 -6.45 -5.68434e-14 -1.7053e-13 -1.53527 0.812663 -2.73144 -6.45 -5.68434e-14 -5.68434e-14 -7.55876 -70.3402 22.1963 2.27374e-13 -32.4 -2 -24.8753 -40.4726 -30.7763 -2.27374e-13 -25.65 2 -9.39681 30.8853 14.0538 0.5 -1.5 2.65 -112.428 64.4618 -89.8224 0 -3.8 3.7 -27.4297 45.0541 4.7234 0 -3 2.7 -0.00352339 20.1967 -0.0134464 2.27374e-13 -1.9 1.6 -5.1136e-06 9.23792e-06 -8.55104e-06 0 -8.3 1.9 10.9118 -5.86598 0.525405 0 -4.5 0 -0.0142251 0.0136715 0.157476 4.54747e-13 -3.4 -2.27374e-13 -0.00991358 0.071297 0.157613 0.25 -2.2 0.4 -5.1136e-06 9.23792e-06 -8.55104e-06 0 -8.3 1 28.03 -7.55189 0.923266 0 -4.65 0 44.0294 26.4616 2.57826 -1.13687e-13 -3.3 -2.27374e-13 38.5049 -0.0488818 -0.111849 0.5 -2.15 -0.8 -5.1136e-06 9.23792e-06 -8.55104e-06 2.27374e-13 -7.75 -0.2 57.3339 -0.0407115 -3.60231 2.27374e-13 -3.8 0 21.9093 24.4273 5.04864 1.13687e-13 -3.4 -2.27374e-13 31.1829 0.000797014 -0.00272761 0.75 -1.75 -1.85 -5.1136e-06 9.23792e-06 -8.55104e-06 2.27374e-13 -7.15 -1 75.9754 -2.12598 -6.49204 0 -3 0 26.752 19.3784 2.13088 -5.68434e-14 -2.35 1.13687e-13 27.519 0.00585987 0.00561738 8 -5.68434e-14 0 39.1779 -36.6896 29.3847 -2.27374e-13 -45 -1 -25.3182 18.8263 7.75768 0 -41 -2 7.99349 19.5219 -20.0918 -2.27374e-13 -7.5 12.5 -0.00016958 6.1586e-06 0.0505248 0 0 4 11.7523 -12.4601 9.65296 -8 0 0 25.5201 12.5354 -15.0253 -2.27374e-13 -45 -1 -46.3338 9.15313 13.4699 2.27374e-13 -41 -2 30.5473 -28.9635 -2.80162 0 -7.5 12.5 0.00530531 -0.00140782 -0.00862378 -2.27374e-13 0 4 -26.8927 -2.72122 56.7446 
